HIERARCHY
ROOT Junyuan_V1:Solving:Hips
{
	OFFSET 0.000000 0.000000 0.000000
	CHANNELS 6 Xposition Yposition Zposition Xrotation Yrotation Zrotation
	JOINT Junyuan_V1:Solving:Spine
	{
		OFFSET 0.000000 -11.180205 2.228564
		CHANNELS 6 Xposition Yposition Zposition Xrotation Yrotation Zrotation
		JOINT Junyuan_V1:Solving:Spine1
		{
			OFFSET 0.000000 -8.682996 1.531049
			CHANNELS 6 Xposition Yposition Zposition Xrotation Yrotation Zrotation
			JOINT Junyuan_V1:Solving:Spine2
			{
				OFFSET 0.000000 -8.783394 0.768450
				CHANNELS 6 Xposition Yposition Zposition Xrotation Yrotation Zrotation
				JOINT Junyuan_V1:Solving:Spine3
				{
					OFFSET 0.000000 -8.816944 0.000000
					CHANNELS 6 Xposition Yposition Zposition Xrotation Yrotation Zrotation
					JOINT Junyuan_V1:Solving:Neck
					{
						OFFSET 0.000000 -11.336071 -1.133605
						CHANNELS 6 Xposition Yposition Zposition Xrotation Yrotation Zrotation
						JOINT Junyuan_V1:Solving:Neck1
						{
							OFFSET 0.000000 -7.643246 -0.668695
							CHANNELS 6 Xposition Yposition Zposition Xrotation Yrotation Zrotation
							JOINT Junyuan_V1:Solving:Head
							{
								OFFSET 0.000000 -7.555870 -1.332303
								CHANNELS 6 Xposition Yposition Zposition Xrotation Yrotation Zrotation
								JOINT Junyuan_V1:Solving:HeadEnd
								{
									OFFSET 0.000000 -9.728081 0.000002
									CHANNELS 6 Xposition Yposition Zposition Xrotation Yrotation Zrotation
									End Site
									{
										OFFSET 0.000000 -9.728081 0.000002
									}
								}
							}
						}
					}
					JOINT Junyuan_V1:Solving:RightShoulder
					{
						OFFSET 0.000000 -8.097195 -5.270916
						CHANNELS 6 Xposition Yposition Zposition Xrotation Yrotation Zrotation
						JOINT Junyuan_V1:Solving:RightArm
						{
							OFFSET -20.762394 -0.000008 0.000000
							CHANNELS 6 Xposition Yposition Zposition Xrotation Yrotation Zrotation
							JOINT Junyuan_V1:Solving:RightForeArm
							{
								OFFSET -29.048946 -0.000008 0.000000
								CHANNELS 6 Xposition Yposition Zposition Xrotation Yrotation Zrotation
								JOINT Junyuan_V1:Solving:RightHand
								{
									OFFSET -22.031235 -0.000008 0.000000
									CHANNELS 6 Xposition Yposition Zposition Xrotation Yrotation Zrotation
									JOINT Junyuan_V1:Solving:RightHandThumb1
									{
										OFFSET -3.579254 2.890213 -2.661497
										CHANNELS 6 Xposition Yposition Zposition Xrotation Yrotation Zrotation
										End Site
										{
											OFFSET -5.229485 0.000000 -5.277840
										}
									}
									JOINT Junyuan_V1:Solving:RightHandMiddle1
									{
										OFFSET -9.544678 -0.000004 0.061184
										CHANNELS 6 Xposition Yposition Zposition Xrotation Yrotation Zrotation
										End Site
										{
											OFFSET -7.429878 -0.000004 0.000000
										}
									}
								}
							}
						}
					}
					JOINT Junyuan_V1:Solving:LeftShoulder
					{
						OFFSET 0.000000 -8.097195 -5.270916
						CHANNELS 6 Xposition Yposition Zposition Xrotation Yrotation Zrotation
						JOINT Junyuan_V1:Solving:LeftArm
						{
							OFFSET 20.762394 -0.000008 0.000000
							CHANNELS 6 Xposition Yposition Zposition Xrotation Yrotation Zrotation
							JOINT Junyuan_V1:Solving:LeftForeArm
							{
								OFFSET 29.048946 -0.000008 0.000000
								CHANNELS 6 Xposition Yposition Zposition Xrotation Yrotation Zrotation
								JOINT Junyuan_V1:Solving:LeftHand
								{
									OFFSET 22.031235 -0.000008 0.000000
									CHANNELS 6 Xposition Yposition Zposition Xrotation Yrotation Zrotation
									JOINT Junyuan_V1:Solving:LeftHandThumb1
									{
										OFFSET 3.579254 2.890213 -2.661497
										CHANNELS 6 Xposition Yposition Zposition Xrotation Yrotation Zrotation
										End Site
										{
											OFFSET 5.229485 0.000000 -5.277840
										}
									}
									JOINT Junyuan_V1:Solving:LeftHandMiddle1
									{
										OFFSET 9.544678 -0.000004 0.061184
										CHANNELS 6 Xposition Yposition Zposition Xrotation Yrotation Zrotation
										End Site
										{
											OFFSET 7.429878 -0.000004 0.000000
										}
									}
								}
							}
						}
					}
				}
			}
		}
	}
	JOINT Junyuan_V1:Solving:RightUpLeg
	{
		OFFSET -10.825166 0.000000 0.000000
		CHANNELS 6 Xposition Yposition Zposition Xrotation Yrotation Zrotation
		JOINT Junyuan_V1:Solving:RightLeg
		{
			OFFSET 0.000000 43.678444 -0.000006
			CHANNELS 6 Xposition Yposition Zposition Xrotation Yrotation Zrotation
			JOINT Junyuan_V1:Solving:RightFoot
			{
				OFFSET 0.000000 36.488441 -0.000006
				CHANNELS 6 Xposition Yposition Zposition Xrotation Yrotation Zrotation
				JOINT Junyuan_V1:Solving:RightForeFoot
				{
					OFFSET 0.000000 3.967834 -0.000000
					CHANNELS 6 Xposition Yposition Zposition Xrotation Yrotation Zrotation
					JOINT Junyuan_V1:Solving:RightToeBase
					{
						OFFSET 0.000000 0.000000 -15.539299
						CHANNELS 6 Xposition Yposition Zposition Xrotation Yrotation Zrotation
						JOINT Junyuan_V1:Solving:RightToeBaseEnd
						{
							OFFSET 0.000000 0.000000 -3.486985
							CHANNELS 6 Xposition Yposition Zposition Xrotation Yrotation Zrotation
							End Site
							{
								OFFSET 0.000000 -3.486992 0.000000
							}
						}
					}
				}
			}
		}
	}
	JOINT Junyuan_V1:Solving:LeftUpLeg
	{
		OFFSET 10.825166 0.000000 0.000000
		CHANNELS 6 Xposition Yposition Zposition Xrotation Yrotation Zrotation
		JOINT Junyuan_V1:Solving:LeftLeg
		{
			OFFSET 0.000000 43.678444 -0.000006
			CHANNELS 6 Xposition Yposition Zposition Xrotation Yrotation Zrotation
			JOINT Junyuan_V1:Solving:LeftFoot
			{
				OFFSET 0.000000 36.488441 -0.000006
				CHANNELS 6 Xposition Yposition Zposition Xrotation Yrotation Zrotation
				JOINT Junyuan_V1:Solving:LeftForeFoot
				{
					OFFSET 0.000000 3.967834 -0.000000
					CHANNELS 6 Xposition Yposition Zposition Xrotation Yrotation Zrotation
					JOINT Junyuan_V1:Solving:LeftToeBase
					{
						OFFSET 0.000000 0.000000 -15.539299
						CHANNELS 6 Xposition Yposition Zposition Xrotation Yrotation Zrotation
						JOINT Junyuan_V1:Solving:LeftToeBaseEnd
						{
							OFFSET 0.000000 0.000000 -3.974441
							CHANNELS 6 Xposition Yposition Zposition Xrotation Yrotation Zrotation
							End Site
							{
								OFFSET 0.000000 -3.974442 0.000000
							}
						}
					}
				}
			}
		}
	}
}
MOTION
Frames: 4
Frame Time: 0.041667
47.473763 -14.019066 -65.947853 45.656956 -171.274643 -1.003774 0.000014 -11.180203 2.228565 16.254981 0.172141 -0.928335 0.000005 -8.683011 1.531062 10.611330 0.061314 -0.509318 0.000003 -8.783392 0.768449 14.607912 -2.914240 -0.757514 -0.000005 -8.816947 -0.000012 -6.374121 -0.064711 -0.826307 -0.000001 -11.336081 -1.133589 -26.715467 -6.862356 3.031997 0.000000 -7.643249 -0.668716 7.388894 -1.707845 -0.815159 -0.000005 -7.555858 -1.332292 3.824486 -0.094516 -0.273310 0.000009 -9.728065 0.000002 0.000004 -0.000000 0.000001 -0.000001 -8.097195 -5.270906 0.000005 5.291154 21.230330 -20.762392 -0.000003 0.000003 -73.112134 -20.384112 -90.384262 -29.048946 -0.000005 -0.000007 -35.058367 -13.053127 -9.005766 -22.031239 -0.000028 -0.000005 2.930390 -6.362361 24.793942 -3.579258 2.890211 -2.661506 0.000005 -0.000007 0.000005 -9.544683 -0.000006 0.061179 0.000002 -0.000001 0.000002 -0.000002 -8.097202 -5.270907 0.000001 -8.855165 -15.610609 20.762390 -0.000004 0.000004 -73.802018 28.748113 85.009614 29.048962 -0.000012 -0.000005 -62.520020 6.607906 12.475380 22.031233 -0.000016 0.000016 1.838711 5.922754 -17.281512 3.579268 2.890201 -2.661509 0.000001 -0.000009 -0.000003 9.544699 -0.000012 0.061175 0.000000 -0.000002 -0.000003 -10.825157 0.000002 0.000000 -110.152769 34.548425 34.623421 0.000002 43.678452 0.000011 82.693756 0.000006 0.000003 0.000008 36.488441 0.000002 -24.090335 10.927250 -0.280776 0.000007 3.967827 0.000006 0.000000 0.000003 0.000001 -0.000004 -0.000014 -15.539307 7.071074 0.000000 0.000001 0.000015 -0.000007 -3.486977 0.000002 -0.000006 0.000000 10.825172 0.000008 0.000001 -111.325226 -20.274184 -42.620852 0.000004 43.678436 0.000005 84.058168 0.000005 0.000004 -0.000008 36.488403 0.000003 -21.125838 11.234204 6.699227 -0.000000 3.967827 -0.000003 0.000001 0.000002 0.000001 -0.000002 -0.000016 -15.539295 -4.212632 -0.000004 -0.000002 -0.000007 -0.000008 -3.974440 -0.000000 -0.000002 -0.000001 
47.423233 -13.937742 -65.294502 45.360386 -171.222584 -1.314234 -0.000005 -11.180195 2.228568 16.398955 0.191153 -0.888446 0.000003 -8.682996 1.531054 10.845689 0.060509 -0.461141 -0.000003 -8.783400 0.768461 14.535339 -2.791639 -0.397210 0.000006 -8.816947 -0.000015 -6.462474 0.036339 -0.786175 -0.000003 -11.336072 -1.133597 -27.049839 -6.843824 2.721335 0.000005 -7.643258 -0.668687 7.336872 -1.696921 -0.811321 -0.000001 -7.555858 -1.332315 3.669519 -0.095533 -0.261197 0.000009 -9.728096 0.000003 0.000005 -0.000000 0.000000 0.000002 -8.097198 -5.270923 0.000002 5.211862 21.195484 -20.762390 -0.000007 -0.000006 -73.503511 -20.384676 -90.444136 -29.048952 -0.000021 0.000002 -35.583605 -12.915479 -9.085962 -22.031235 -0.000001 -0.000002 3.054454 -6.621542 24.832835 -3.579260 2.890234 -2.661481 -0.000000 -0.000005 0.000013 -9.544683 0.000014 0.061194 -0.000000 -0.000001 0.000003 -0.000005 -8.097202 -5.270924 -0.000003 -8.984515 -15.950734 20.762390 -0.000009 0.000001 -74.336569 29.055556 85.125160 29.048943 -0.000015 -0.000003 -62.720138 6.343160 12.092309 22.031246 -0.000018 -0.000004 1.871852 5.933724 -17.543771 3.579260 2.890205 -2.661507 0.000004 -0.000002 -0.000003 9.544684 0.000001 0.061183 0.000001 0.000003 -0.000001 -10.825170 0.000004 0.000005 -111.106995 33.756400 34.540605 -0.000003 43.678440 0.000021 83.962457 0.000007 -0.000003 -0.000002 36.488434 -0.000003 -24.462362 11.268000 0.017997 -0.000000 3.967827 0.000013 0.000002 -0.000004 -0.000000 -0.000002 -0.000003 -15.539290 6.901919 -0.000007 0.000001 0.000001 -0.000023 -3.487000 0.000001 0.000000 0.000002 10.825147 0.000009 0.000001 -112.168133 -19.926356 -42.683853 -0.000005 43.678455 -0.000006 85.337968 0.000006 0.000005 0.000006 36.488430 -0.000009 -21.596105 10.840183 6.473352 0.000006 3.967827 -0.000002 -0.000000 0.000004 -0.000002 0.000000 -0.000010 -15.539303 -4.162681 0.000005 -0.000002 -0.000002 -0.000008 -3.974439 -0.000000 0.000000 0.000000 
47.341446 -13.710531 -64.654968 44.520717 -170.877017 -2.064801 -0.000001 -11.180202 2.228563 16.520339 0.270676 -0.661060 0.000001 -8.682990 1.531053 10.615069 0.001585 -0.212068 0.000000 -8.783403 0.768456 13.897212 -2.748097 0.484934 0.000007 -8.816936 0.000002 -6.092652 0.151459 -1.019377 -0.000007 -11.336071 -1.133605 -27.241822 -6.767699 2.275879 0.000001 -7.643255 -0.668684 7.103255 -1.685774 -0.802784 0.000007 -7.555872 -1.332295 3.589331 -0.095381 -0.255334 0.000003 -9.728073 0.000004 0.000001 -0.000000 0.000000 -0.000002 -8.097187 -5.270917 0.000008 5.135781 21.076774 -20.762394 -0.000005 0.000007 -73.812393 -20.322417 -90.577837 -29.048946 -0.000029 0.000001 -35.828348 -12.858165 -9.127516 -22.031244 -0.000014 -0.000003 3.128874 -6.776683 24.856132 -3.579256 2.890189 -2.661491 0.000011 -0.000003 0.000007 -9.544676 -0.000031 0.061179 0.000002 -0.000003 0.000002 0.000001 -8.097202 -5.270912 0.000006 -9.191731 -16.459101 20.762379 -0.000015 -0.000003 -74.899752 29.354869 85.316282 29.048946 -0.000008 -0.000010 -62.977226 6.069088 11.711433 22.031244 -0.000014 0.000008 1.871606 5.894945 -17.649479 3.579275 2.890210 -2.661497 0.000007 -0.000003 -0.000003 9.544695 -0.000006 0.061171 -0.000001 -0.000000 0.000002 -10.825159 0.000004 -0.000001 -112.393160 32.689135 33.777307 -0.000007 43.678448 -0.000003 85.051674 0.000005 -0.000001 0.000010 36.488464 -0.000015 -24.502616 11.772868 0.467881 -0.000004 3.967827 -0.000014 -0.000001 0.000006 -0.000001 0.000001 0.000003 -15.539299 6.612348 0.000002 -0.000001 -0.000003 -0.000007 -3.486954 0.000001 -0.000001 0.000000 10.825157 0.000003 -0.000001 -113.658501 -19.775168 -43.107882 -0.000005 43.678436 -0.000003 86.532391 0.000005 0.000005 0.000010 36.488438 -0.000008 -22.047663 10.308254 6.255095 0.000001 3.967827 -0.000002 0.000000 0.000001 -0.000000 -0.000009 0.000005 -15.539300 -3.924415 -0.000002 0.000000 -0.000002 -0.000008 -3.974434 -0.000000 0.000001 -0.000002 
47.313549 -13.543309 -64.009346 43.788899 -170.631895 -2.507791 0.000000 -11.180199 2.228570 16.379060 0.215094 -0.481028 -0.000000 -8.683005 1.531044 10.588615 -0.037750 -0.074510 0.000005 -8.783377 0.768451 13.634149 -2.735760 0.941191 -0.000002 -8.816950 -0.000008 -5.930348 0.232095 -1.163559 -0.000001 -11.336090 -1.133594 -27.391471 -6.732733 2.049194 -0.000003 -7.643255 -0.668701 6.892675 -1.652953 -0.833090 -0.000005 -7.555878 -1.332316 3.432257 -0.093378 -0.254591 -0.000004 -9.728096 -0.000005 0.000006 -0.000000 0.000000 0.000005 -8.097202 -5.270914 0.000005 5.096408 21.066330 -20.762396 -0.000008 -0.000021 -74.116869 -20.361562 -90.628148 -29.048943 -0.000034 -0.000004 -36.007255 -12.809213 -9.152883 -22.031233 -0.000016 -0.000002 3.190812 -6.896400 24.904507 -3.579248 2.890194 -2.661509 0.000001 -0.000009 0.000008 -9.544686 -0.000029 0.061170 0.000002 0.000001 -0.000002 0.000007 -8.097206 -5.270916 0.000001 -9.295468 -16.828239 20.762379 -0.000008 0.000010 -75.393950 29.620683 85.507678 29.048954 -0.000008 0.000004 -63.180479 5.873476 11.442698 22.031240 -0.000009 -0.000001 1.919707 5.920796 -18.000682 3.579269 2.890215 -2.661495 0.000005 -0.000003 -0.000010 9.544682 -0.000001 0.061193 0.000002 0.000002 -0.000004 -10.825161 -0.000003 0.000010 -113.622779 31.945164 33.269124 -0.000005 43.678448 -0.000000 86.137339 0.000011 0.000001 -0.000007 36.488441 -0.000003 -24.705851 12.249266 0.788322 0.000001 3.967819 -0.000010 0.000000 -0.000002 -0.000001 0.000004 -0.000003 -15.539306 6.176314 -0.000003 0.000000 0.000005 -0.000001 -3.486995 -0.000002 -0.000004 0.000000 10.825162 -0.000003 0.000008 -115.017052 -19.350711 -43.377281 -0.000012 43.678440 0.000005 87.768628 0.000009 0.000002 -0.000005 36.488434 -0.000006 -22.464332 9.857093 5.987368 0.000002 3.967827 0.000002 0.000000 -0.000001 0.000003 -0.000001 0.000007 -15.539299 -3.831761 -0.000003 0.000002 -0.000005 -0.000007 -3.974444 0.000000 -0.000005 0.000002 
